<svg width="89" height="44" viewBox="0 0 89 44" fill="none" xmlns="http://www.w3.org/2000/svg">
<g filter="url(#filter0_d_18301_195)">
<path d="M77.08 26.336C75.752 26.336 74.52 26.128 73.384 25.712C72.248 25.28 71.264 24.672 70.432 23.888C69.616 23.104 68.976 22.184 68.512 21.128C68.048 20.056 67.816 18.88 67.816 17.6C67.816 16.32 68.048 15.152 68.512 14.096C68.976 13.024 69.624 12.096 70.456 11.312C71.288 10.528 72.272 9.928 73.408 9.512C74.56 9.08 75.816 8.864 77.176 8.864C78.76 8.864 80.176 9.128 81.424 9.656C82.672 10.184 83.704 10.944 84.52 11.936L81.496 14.672C80.92 14.048 80.296 13.584 79.624 13.28C78.968 12.96 78.232 12.8 77.416 12.8C76.696 12.8 76.04 12.912 75.448 13.136C74.856 13.36 74.352 13.688 73.936 14.12C73.52 14.536 73.192 15.04 72.952 15.632C72.728 16.208 72.616 16.864 72.616 17.6C72.616 18.304 72.728 18.952 72.952 19.544C73.192 20.136 73.52 20.648 73.936 21.08C74.352 21.496 74.848 21.824 75.424 22.064C76.016 22.288 76.664 22.4 77.368 22.4C78.072 22.4 78.76 22.288 79.432 22.064C80.104 21.824 80.784 21.424 81.472 20.864L84.136 24.2C83.176 24.888 82.064 25.416 80.8 25.784C79.536 26.152 78.296 26.336 77.08 26.336ZM79.936 23.576V17.24H84.136V24.2L79.936 23.576Z" fill="#333333"/>
<path fill-rule="evenodd" clip-rule="evenodd" d="M61 18C61 20.8737 60.4014 23.5901 59.3369 26H46C48.4627 22.2281 51 17.6606 51 13C51 7.00236 46.9385 1.95335 41.4158 0.453392C42.5681 0.156712 43.7678 0 45 0C53.8366 0 61 8.05888 61 18ZM47 13C47 8.02944 42.9706 4 38 4C31.3493 4 29 12.5071 29 18C29 27.9411 36.1634 36 45 36C49.7387 36 53.9962 33.6825 56.9259 30H38C38.3518 29.5514 38.7202 29.0891 39.0987 28.6142C42.6157 24.2012 47 18.6997 47 13Z" fill="#7859CF"/>
<path d="M4.85188 26V9.2H12.7959C14.6519 9.2 16.2839 9.544 17.6919 10.232C19.0999 10.92 20.1959 11.888 20.9799 13.136C21.7799 14.384 22.1799 15.872 22.1799 17.6C22.1799 19.312 21.7799 20.8 20.9799 22.064C20.1959 23.312 19.0999 24.28 17.6919 24.968C16.2839 25.656 14.6519 26 12.7959 26H4.85188ZM9.60388 22.208H12.6039C13.5639 22.208 14.3959 22.032 15.0999 21.68C15.8199 21.312 16.3799 20.784 16.7799 20.096C17.1799 19.392 17.3799 18.56 17.3799 17.6C17.3799 16.624 17.1799 15.792 16.7799 15.104C16.3799 14.416 15.8199 13.896 15.0999 13.544C14.3959 13.176 13.5639 12.992 12.6039 12.992H9.60388V22.208Z" fill="#333333"/>
</g>
<defs>
<filter id="filter0_d_18301_195" x="-1" y="0" width="90" height="44" filterUnits="userSpaceOnUse" color-interpolation-filters="sRGB">
<feFlood flood-opacity="0" result="BackgroundImageFix"/>
<feColorMatrix in="SourceAlpha" type="matrix" values="0 0 0 0 0 0 0 0 0 0 0 0 0 0 0 0 0 0 127 0" result="hardAlpha"/>
<feOffset dy="4"/>
<feGaussianBlur stdDeviation="2"/>
<feComposite in2="hardAlpha" operator="out"/>
<feColorMatrix type="matrix" values="0 0 0 0 0 0 0 0 0 0 0 0 0 0 0 0 0 0 0.25 0"/>
<feBlend mode="normal" in2="BackgroundImageFix" result="effect1_dropShadow_18301_195"/>
<feBlend mode="normal" in="SourceGraphic" in2="effect1_dropShadow_18301_195" result="shape"/>
</filter>
</defs>
</svg>
